<svg width="100" height="100" viewBox="0 0 100 100" fill="none" xmlns="http://www.w3.org/2000/svg">
<g id="bulb">
<path id="Icon" fill-rule="evenodd" clip-rule="evenodd" d="M20 35C20 18.4315 33.4315 5 50 5C66.5685 5 80 18.4315 80 35V37.4641C80 47.3306 75.069 56.5443 66.8595 62.0172C65.6978 62.7917 65 64.0956 65 65.4918V73.4099C65 77.0495 62.0495 80 58.4099 80H41.5901C37.9505 80 35 77.0495 35 73.4099V65.4918C35 64.0956 34.3022 62.7917 33.1405 62.0172C24.931 56.5443 20 47.3306 20 37.4641V35ZM50 12.5C37.5736 12.5 27.5 22.5736 27.5 35V37.4641C27.5 44.8229 31.1778 51.6949 37.3007 55.7769C40.5489 57.9424 42.5 61.5879 42.5 65.4918V72.5H57.5V65.4918C57.5 61.5879 59.4511 57.9424 62.6993 55.7769C68.8222 51.6949 72.5 44.8229 72.5 37.4641V35C72.5 22.5736 62.4264 12.5 50 12.5ZM40 91.25C40 89.1789 41.6789 87.5 43.75 87.5H56.25C58.3211 87.5 60 89.1789 60 91.25C60 93.3211 58.3211 95 56.25 95H43.75C41.6789 95 40 93.3211 40 91.25Z" fill="#008000"/>
</g>
</svg>
