<svg width="115" height="115" viewBox="0 0 115 115" fill="none" xmlns="http://www.w3.org/2000/svg">
<g id="Calendar icon" clip-path="url(#clip0_41_196)">
<path id="Icon" fill-rule="evenodd" clip-rule="evenodd" d="M38.8125 5.75C41.1942 5.75 43.125 7.68077 43.125 10.0625V17.25H71.875V10.0625C71.875 7.68077 73.8058 5.75 76.1875 5.75C78.5692 5.75 80.5 7.68077 80.5 10.0625V17.25H93.4375C102.171 17.25 109.25 24.3295 109.25 33.0625V50.3125C109.25 52.6942 107.319 54.625 104.938 54.625H14.375V93.4375C14.375 97.407 17.593 100.625 21.5625 100.625H50.3125C52.6942 100.625 54.625 102.556 54.625 104.938C54.625 107.319 52.6942 109.25 50.3125 109.25H21.5625C12.8295 109.25 5.75 102.171 5.75 93.4375V33.0625C5.75 24.3295 12.8295 17.25 21.5625 17.25H34.5V10.0625C34.5 7.68077 36.4308 5.75 38.8125 5.75ZM34.5 25.875H21.5625C17.593 25.875 14.375 29.093 14.375 33.0625V46H100.625V33.0625C100.625 29.093 97.4071 25.875 93.4375 25.875H80.5V30.1875C80.5 32.5692 78.5692 34.5 76.1875 34.5C73.8058 34.5 71.875 32.5692 71.875 30.1875V25.875H43.125V30.1875C43.125 32.5692 41.1942 34.5 38.8125 34.5C36.4308 34.5 34.5 32.5692 34.5 30.1875V25.875ZM113.649 75.9273C115.38 77.5626 115.458 80.292 113.823 82.0236L89.3852 107.899C88.5582 108.774 87.4026 109.264 86.1982 109.25C84.9938 109.235 83.8503 108.718 83.0445 107.822L70.107 93.4474C68.5138 91.6771 68.6573 88.9503 70.4276 87.357C72.1979 85.7637 74.9247 85.9073 76.518 87.6776L86.3264 98.5759L107.552 76.1014C109.188 74.3699 111.917 74.2919 113.649 75.9273Z" fill="#008000"/>
</g>
<defs>
<clipPath id="clip0_41_196">
<rect width="115" height="115" fill="white"/>
</clipPath>
</defs>
</svg>
