<svg width="150" height="150" viewBox="0 0 150 150" fill="none" xmlns="http://www.w3.org/2000/svg">
<g id="mail">
<path id="Icon" fill-rule="evenodd" clip-rule="evenodd" d="M19.2318 40.1503L75 72.2593L130.768 40.1503C129.525 36.4308 126.013 33.75 121.875 33.75H28.125C23.9871 33.75 20.4754 36.4308 19.2318 40.1503ZM131.25 52.8544L77.8067 83.6248C76.0693 84.6251 73.9307 84.6251 72.1933 83.6248L18.75 52.8544V106.875C18.75 112.053 22.9473 116.25 28.125 116.25H121.875C127.053 116.25 131.25 112.053 131.25 106.875V52.8544ZM7.5 43.125C7.5 31.7341 16.7341 22.5 28.125 22.5H121.875C133.266 22.5 142.5 31.7341 142.5 43.125V106.875C142.5 118.266 133.266 127.5 121.875 127.5H28.125C16.7341 127.5 7.5 118.266 7.5 106.875V43.125Z" fill="#008000"/>
</g>
</svg>
