<svg width="30" height="30" viewBox="0 0 30 30" fill="none" xmlns="http://www.w3.org/2000/svg">
<g id="marker-pin">
<path id="Icon" fill-rule="evenodd" clip-rule="evenodd" d="M21.359 6.41821C17.8454 2.8606 12.1546 2.8606 8.64097 6.41821C5.11968 9.9836 5.11968 15.77 8.64097 19.3354L15 25.774L21.359 19.3354C24.8803 15.77 24.8803 9.9836 21.359 6.41821ZM15 27.375L14.1995 28.1655L7.04011 20.9164C2.6533 16.4747 2.6533 9.2789 7.04011 4.83715C11.4346 0.387617 18.5654 0.387617 22.9599 4.83715C27.3467 9.2789 27.3467 16.4747 22.9599 20.9164L15.8014 28.1646L15 27.375ZM15 27.375L15.8014 28.1646C15.59 28.3786 15.3008 28.5 15 28.5C14.6992 28.5 14.4109 28.3795 14.1995 28.1655L15 27.375ZM15 9.75C13.7574 9.75 12.75 10.7574 12.75 12C12.75 13.2426 13.7574 14.25 15 14.25C16.2426 14.25 17.25 13.2426 17.25 12C17.25 10.7574 16.2426 9.75 15 9.75ZM10.5 12C10.5 9.51472 12.5147 7.5 15 7.5C17.4853 7.5 19.5 9.51472 19.5 12C19.5 14.4853 17.4853 16.5 15 16.5C12.5147 16.5 10.5 14.4853 10.5 12Z" fill="#008000"/>
</g>
</svg>
