<svg width="30" height="30" viewBox="0 0 30 30" fill="none" xmlns="http://www.w3.org/2000/svg">
<g id="phone">
<path id="Icon" fill-rule="evenodd" clip-rule="evenodd" d="M1.5 8.06198C1.5 4.4379 4.4379 1.5 8.06198 1.5C8.72085 1.5 9.35272 1.76173 9.81861 2.22762L12.2234 4.63245L11.4279 5.42794M8.06198 3.75C5.68054 3.75 3.75 5.68054 3.75 8.06198V10.6266C3.75 12.0874 4.10184 13.5266 4.77576 14.8226C7.0917 19.2763 10.7237 22.9083 15.1774 25.2242C16.4734 25.8982 17.9126 26.25 19.3734 26.25H23.0935C24.8368 26.25 26.25 24.8368 26.25 23.0935C26.25 22.396 25.9014 21.7447 25.3211 21.3578L23.5713 20.1913C23.3243 20.0266 23.1824 19.9327 23.0715 19.8686C23.0033 19.8292 22.9723 19.8165 22.9639 19.8135C22.9055 19.7992 22.8445 19.7992 22.7861 19.8135C22.7777 19.8165 22.7467 19.8292 22.6785 19.8686C22.5676 19.9327 22.4257 20.0266 22.1787 20.1913L20.9571 21.0057C20.9339 21.0211 20.911 21.0364 20.8884 21.0515C20.5001 21.3106 20.1963 21.5133 19.8732 21.6569C18.9391 22.0718 17.8842 22.1252 16.9129 21.8066C16.5769 21.6964 16.2542 21.5254 15.8418 21.3068C15.8178 21.2941 15.7934 21.2812 15.7688 21.2682L15.4186 21.0828C14.7418 20.7245 14.3544 20.5194 13.9858 20.2919C12.2462 19.2186 10.7814 17.7538 9.70805 16.0142C9.48058 15.6456 9.27548 15.2581 8.91719 14.5813L8.89648 14.5422C8.88516 14.5208 8.87398 14.4997 8.86295 14.4789C8.67702 14.128 8.53224 13.8548 8.43304 13.5799C7.96065 12.271 8.18001 10.8122 9.01643 9.7001C9.19209 9.46654 9.41081 9.24798 9.69175 8.96723C9.70841 8.95059 9.72529 8.93372 9.7424 8.91661L10.6324 8.02656C10.9426 7.71642 11.1267 7.53104 11.2525 7.38289C11.3293 7.29247 11.3554 7.24832 11.3619 7.23598C11.3843 7.16369 11.3843 7.08631 11.3619 7.01401C11.3554 7.00167 11.3293 6.95753 11.2525 6.86711C11.1267 6.71896 10.9426 6.53358 10.6324 6.22344L8.22762 3.81861C8.18369 3.77468 8.12411 3.75 8.06198 3.75ZM12.9678 5.41096C13.1754 5.65549 13.3804 5.94509 13.5002 6.31383C13.6715 6.84104 13.6715 7.40896 13.5002 7.93617C13.3804 8.30491 13.1754 8.59451 12.9678 8.83904C12.7752 9.06584 12.5244 9.31664 12.2513 9.58971L11.3334 10.5076C10.9783 10.8627 10.8824 10.9624 10.8146 11.0525C10.4344 11.558 10.3347 12.2211 10.5494 12.8161C10.5877 12.9221 10.65 13.0457 10.885 13.4895C11.2696 14.216 11.439 14.5347 11.6229 14.8327C12.5122 16.2741 13.7259 17.4878 15.1673 18.3771C15.4653 18.561 15.784 18.7304 16.5105 19.115L16.8215 19.2797C17.3411 19.5547 17.4841 19.626 17.6142 19.6687C18.0556 19.8135 18.5351 19.7892 18.9597 19.6006C19.0848 19.5451 19.22 19.4596 19.709 19.1336L20.9307 18.3191C20.9619 18.2983 20.9932 18.2773 21.0247 18.2562C21.3962 18.0072 21.7921 17.7418 22.2435 17.6299C22.6582 17.5271 23.0918 17.5271 23.5065 17.6299C23.9579 17.7418 24.3538 18.0072 24.7253 18.2562C24.7568 18.2773 24.7881 18.2983 24.8193 18.3191L26.5691 19.4857C27.7754 20.2899 28.5 21.6437 28.5 23.0935C28.5 26.0794 26.0794 28.5 23.0935 28.5H19.3734C17.5513 28.5 15.756 28.0611 14.1394 27.2205C9.27536 24.6912 5.3088 20.7246 2.77952 15.8606C1.93888 14.244 1.5 12.4487 1.5 10.6266V8.06198M12.9678 5.41096C12.7752 5.18415 12.5244 4.93333 12.2512 4.66024L12.9678 5.41096ZM12.2512 4.66024L12.2234 4.63245L12.2512 4.66024Z" fill="black"/>
</g>
</svg>
